<svg width="78" height="68" viewBox="0 0 78 68" fill="none" xmlns="http://www.w3.org/2000/svg">
<path d="M7.48562 39.847L34.7197 65.8769C35.8501 66.957 37.3421 67.5588 38.8945 67.5588C40.4469 67.5588 41.9389 66.957 43.0693 65.8769L70.3034 39.847C74.8851 35.4804 77.4774 29.3548 77.4774 22.9515V22.0566C77.4774 11.2712 69.8663 2.07515 59.4821 0.300741C52.6095 -0.871916 45.6164 1.42711 40.7031 6.45719L38.8945 8.30875L37.0859 6.45719C32.1726 1.42711 25.1795 -0.871916 18.3069 0.300741C7.92269 2.07515 0.311615 11.2712 0.311615 22.0566V22.9515C0.311615 29.3548 2.9039 35.4804 7.48562 39.847Z" fill="white"/>
</svg>
