<svg width="84" height="85" viewBox="0 0 84 85" fill="none" xmlns="http://www.w3.org/2000/svg">
<path d="M42.3147 7.96875C23.6824 7.96875 8.58524 23.4248 8.58524 42.5V49.1406C8.58524 51.3486 6.85012 53.125 4.69338 53.125C2.53664 53.125 0.801514 51.3486 0.801514 49.1406V42.5C0.801514 19.0254 19.3852 0 42.3147 0C65.2443 0 83.828 19.0254 83.828 42.5V66.4229C83.828 74.4912 77.4388 81.0322 69.5416 81.0322L51.6552 81.0156C50.3093 83.3896 47.7958 85 44.9093 85H39.7202C35.4229 85 31.9364 81.4307 31.9364 77.0312C31.9364 72.6318 35.4229 69.0625 39.7202 69.0625H44.9093C47.7958 69.0625 50.3093 70.6729 51.6552 73.0469L69.5578 73.0635C73.1416 73.0635 76.0442 70.0918 76.0442 66.4229V42.5C76.0442 23.4248 60.947 7.96875 42.3147 7.96875ZM24.1527 34.5312H26.7473C29.6175 34.5312 31.9364 36.9053 31.9364 39.8438V58.4375C31.9364 61.376 29.6175 63.75 26.7473 63.75H24.1527C18.4284 63.75 13.7744 58.9854 13.7744 53.125V45.1562C13.7744 39.2959 18.4284 34.5312 24.1527 34.5312ZM60.4768 34.5312C66.2011 34.5312 70.8551 39.2959 70.8551 45.1562V53.125C70.8551 58.9854 66.2011 63.75 60.4768 63.75H57.8822C55.012 63.75 52.6931 61.376 52.6931 58.4375V39.8438C52.6931 36.9053 55.012 34.5312 57.8822 34.5312H60.4768Z" fill="white"/>
</svg>
