<svg width="61" height="71" viewBox="0 0 61 71" fill="none" xmlns="http://www.w3.org/2000/svg">
<path d="M56.5008 0C54.338 0 39.1978 4.4375 39.1978 24.4062V39.9375C39.1978 44.8326 43.0775 48.8125 47.8493 48.8125H52.1751V66.5625C52.1751 69.017 54.1082 71 56.5008 71C58.8935 71 60.8266 69.017 60.8266 66.5625V48.8125V33.2812V4.4375C60.8266 1.98301 58.8935 0 56.5008 0ZM8.91761 2.21875C8.91761 1.08164 8.09301 0.138672 6.98454 0.0138672C5.87607 -0.110937 4.88926 0.637891 4.64593 1.7334L0.54999 20.6344C0.360739 21.508 0.266113 22.3955 0.266113 23.283C0.266113 29.648 5.01092 34.876 11.0805 35.4445V66.5625C11.0805 69.017 13.0136 71 15.4062 71C17.7989 71 19.732 69.017 19.732 66.5625V35.4445C25.8015 34.876 30.5463 29.648 30.5463 23.283C30.5463 22.3955 30.4517 21.508 30.2625 20.6344L26.1665 1.7334C25.9232 0.624023 24.9094 -0.110937 23.8144 0.0138672C22.7194 0.138672 21.8949 1.08164 21.8949 2.21875V20.8285C21.8949 21.5773 21.3001 22.1875 20.5701 22.1875C19.8807 22.1875 19.3129 21.6467 19.2453 20.9395L17.5556 2.02461C17.461 0.873633 16.5282 0 15.4062 0C14.2842 0 13.3515 0.873633 13.2569 2.02461L11.5806 20.9395C11.5131 21.6467 10.9453 22.1875 10.2559 22.1875C9.52592 22.1875 8.93113 21.5773 8.93113 20.8285V2.21875H8.91761ZM15.4468 23.2969H15.4062H15.3657L15.4062 23.1998L15.4468 23.2969Z" fill="white"/>
</svg>
